<svg width="172" height="40" viewBox="0 0 172 40" fill="none" xmlns="http://www.w3.org/2000/svg">
<g clip-path="url(#clip0_12757_980)">
<path d="M72.4046 34.5979C72.4992 35.7309 73.5534 36.7425 75.567 36.7425C77.4388 36.7425 78.4389 35.9332 78.4389 34.7462C78.4389 33.7009 77.6213 33.2018 76.0198 32.8511L73.6345 32.3251C71.3978 31.8665 69.5395 30.6525 69.5395 28.0492C69.5395 25.0413 72.1952 23.3755 75.5535 23.3755C79.1011 23.3755 81.4864 25.2571 81.5202 27.9616H78.3848C78.3037 26.8825 77.3848 25.8843 75.5468 25.8843C73.9183 25.8843 72.9047 26.6262 72.9047 27.7997C72.9047 28.6832 73.648 29.2834 75.067 29.5599L77.4726 30.0792C79.7971 30.5581 81.7635 31.6506 81.7635 34.4293C81.7635 37.4372 79.3309 39.2851 75.3981 39.2851C70.7221 39.2851 69.2084 36.7628 69.1611 34.5979H72.4046Z" fill="#008732"/>
<path d="M84.2842 38.9951V23.6857H87.6561V38.9951H84.2842Z" fill="#008732"/>
<path d="M90.9395 38.9951V23.6857H93.6964L100.494 33.5121H100.609V23.6857H103.772V38.9951H101.028L94.2235 29.1013H94.1086V38.9951H90.9395Z" fill="#008732"/>
<path d="M110.719 38.9951L105.495 23.6857H109.394L112.793 35.3937H112.935L116.287 23.6857H120.023L114.834 38.9951H110.719Z" fill="#008732"/>
<path d="M132.098 38.9951H121.732V23.6857H132.098V26.3092H125.071V30.032H131.679V32.4734H125.071V36.3649H132.098V38.9951Z" fill="#008732"/>
<path d="M137.694 32.2307C137.694 35.1779 138.998 36.5604 141.045 36.5604C143.045 36.5604 144.079 35.2453 144.079 33.6672H147.316V34.0044C147.316 36.783 145.025 39.2851 140.984 39.2851C136.761 39.2851 134.268 36.6953 134.268 32.2172V30.4906C134.268 26.0192 136.781 23.389 140.991 23.389C144.924 23.389 147.309 25.8574 147.309 28.8181V29.1418H144.072C144.072 27.5704 143.012 26.1136 141.011 26.1136C138.998 26.1136 137.687 27.5569 137.687 30.4974V32.2307H137.694Z" fill="#008732"/>
<path d="M149.235 30.4367C149.235 26.0867 151.817 23.3957 156.134 23.3957C160.466 23.3957 163.02 26.1069 163.02 30.4367V32.3453C163.02 36.6616 160.439 39.2851 156.107 39.2851C151.79 39.2851 149.229 36.6616 149.229 32.3453V30.4367H149.235ZM152.654 32.352C152.654 35.2116 154.101 36.5942 156.121 36.5942C158.155 36.5942 159.587 35.2116 159.587 32.352V30.403C159.587 27.5569 158.155 26.0732 156.121 26.0732C154.094 26.0732 152.654 27.5502 152.654 30.403V32.352Z" fill="#008732"/>
<path d="M34.0363 40C38.9401 40 42.9154 36.0324 42.9154 31.1381C42.9154 26.2438 38.9401 22.2762 34.0363 22.2762C29.1325 22.2762 25.1572 26.2438 25.1572 31.1381C25.1572 36.0324 29.1325 40 34.0363 40Z" fill="#BAB502"/>
<path d="M57.951 10.6289C57.951 10.6289 49.5922 31.6237 39.7468 31.0234C38.8414 30.9695 38.1116 30.2613 38.0372 29.3576C37.152 19.5448 57.951 10.6289 57.951 10.6289Z" fill="url(#paint0_linear_12757_980)"/>
<path d="M34.0364 0C34.0364 0 25.36 20.8666 32.8403 27.2871C33.5296 27.8739 34.5432 27.8739 35.2324 27.2871C42.7195 20.8666 34.0364 0 34.0364 0Z" fill="url(#paint1_linear_12757_980)"/>
<path d="M9.83887 10.6289C9.83887 10.6289 18.1976 31.6237 28.043 31.0234C28.9485 30.9695 29.6783 30.2613 29.7526 29.3576C30.6378 19.5448 9.83887 10.6289 9.83887 10.6289Z" fill="url(#paint2_linear_12757_980)"/>
<path d="M0 35.2723C0 35.2723 20.907 43.9319 27.34 36.466C27.9279 35.7781 27.9279 34.7665 27.34 34.0786C20.907 26.6127 0 35.2723 0 35.2723Z" fill="url(#paint3_linear_12757_980)"/>
<path d="M68.0797 35.2723C68.0797 35.2723 47.1727 43.9319 40.7397 36.466C40.1519 35.7781 40.1519 34.7665 40.7397 34.0786C47.1727 26.6127 68.0797 35.2723 68.0797 35.2723Z" fill="url(#paint4_linear_12757_980)"/>
<path d="M168.777 17.9261C167 17.9261 165.561 19.3627 165.561 21.1364C165.561 22.9101 167 24.3466 168.777 24.3466C170.554 24.3466 171.993 22.9101 171.993 21.1364C172 19.3627 170.554 17.9261 168.777 17.9261ZM168.777 23.8408C167.284 23.8408 166.074 22.6336 166.074 21.1431C166.074 19.6527 167.284 18.4455 168.777 18.4455C170.27 18.4455 171.48 19.6527 171.48 21.1431C171.48 22.6269 170.27 23.8408 168.777 23.8408Z" fill="#008732"/>
<path d="M170.162 20.4687C170.162 21.0824 169.764 21.4062 169.486 21.5141L170.237 22.9978H169.358L168.709 21.6287H168.094V22.9978H167.317V19.275H168.838C169.736 19.2817 170.162 19.7943 170.162 20.4687ZM168.709 21.0555C169.101 21.0555 169.351 20.8531 169.351 20.4822C169.351 20.0843 169.081 19.882 168.723 19.882H168.094V21.0487H168.709V21.0555Z" fill="#008732"/>
</g>
<defs>
<linearGradient id="paint0_linear_12757_980" x1="38.4859" y1="30.4156" x2="58.0913" y2="10.7722" gradientUnits="userSpaceOnUse">
<stop stop-color="#42210B"/>
<stop offset="0.3267" stop-color="#5F3A1D"/>
<stop offset="0.7613" stop-color="#805731"/>
<stop offset="1" stop-color="#8C6239"/>
</linearGradient>
<linearGradient id="paint1_linear_12757_980" x1="34.0388" y1="27.7287" x2="34.0388" y2="0" gradientUnits="userSpaceOnUse">
<stop stop-color="#006837"/>
<stop offset="0.5464" stop-color="#008A34"/>
<stop offset="1" stop-color="#00A232"/>
</linearGradient>
<linearGradient id="paint2_linear_12757_980" x1="27.0832" y1="31.7959" x2="13.6278" y2="8.4453" gradientUnits="userSpaceOnUse">
<stop stop-color="#0035AA"/>
<stop offset="0.197" stop-color="#0448B0"/>
<stop offset="0.7332" stop-color="#0D78BE"/>
<stop offset="1" stop-color="#108BC3"/>
</linearGradient>
<linearGradient id="paint3_linear_12757_980" x1="27.7825" y1="35.2704" x2="0" y2="35.2704" gradientUnits="userSpaceOnUse">
<stop stop-color="#666666"/>
<stop offset="0.1845" stop-color="#777777"/>
<stop offset="0.7259" stop-color="#A3A3A3"/>
<stop offset="1" stop-color="#B4B4B4"/>
</linearGradient>
<linearGradient id="paint4_linear_12757_980" x1="40.2953" y1="35.2704" x2="68.0778" y2="35.2704" gradientUnits="userSpaceOnUse">
<stop stop-color="#DE0000"/>
<stop offset="0.1272" stop-color="#DF0C0E"/>
<stop offset="0.7186" stop-color="#E6404B"/>
<stop offset="1" stop-color="#E85563"/>
</linearGradient>
<clipPath id="clip0_12757_980">
<rect width="172" height="40" fill="white"/>
</clipPath>
</defs>
</svg>
